<svg width="512" height="512" viewBox="0 0 512 512" fill="none" xmlns="http://www.w3.org/2000/svg">
<g clip-path="url(#clip0_7_68)">
<rect width="512" height="512" fill="white"/>
<rect width="512" height="516" fill="url(#paint0_linear_7_68)"/>
<path d="M0 473H113L108 512.092H0V473Z" fill="#191919"/>
<path d="M113 473H291L286 512H108L113 473Z" fill="#2756FF" fill-opacity="0.29"/>
<path d="M291 473H390V512H286L291 473Z" fill="white" fill-opacity="0.65"/>
<path d="M16.1037 483.809V481.473H32.4151V483.809H25.5762V503.222H22.9426V483.809H16.1037ZM38.7204 503.604C37.6868 503.604 36.7487 503.409 35.9062 503.02C35.0638 502.623 34.3947 502.053 33.8992 501.31C33.4036 500.56 33.1558 499.653 33.1558 498.592C33.1558 497.657 33.3399 496.899 33.708 496.319C34.0762 495.731 34.5682 495.271 35.1841 494.938C35.8 494.606 36.4797 494.358 37.2231 494.195C37.9735 494.025 38.7275 493.891 39.485 493.792C40.4761 493.664 41.2797 493.569 41.8956 493.505C42.5186 493.434 42.9717 493.317 43.2549 493.154C43.5452 492.992 43.6903 492.708 43.6903 492.305V492.22C43.6903 491.172 43.4036 490.358 42.8301 489.777C42.2637 489.197 41.4036 488.907 40.2496 488.907C39.0531 488.907 38.1151 489.169 37.4354 489.692C36.7558 490.216 36.2779 490.776 36.0018 491.37L33.6231 490.521C34.0478 489.53 34.6142 488.758 35.3222 488.206C36.0372 487.646 36.816 487.257 37.6584 487.038C38.508 486.811 39.3434 486.698 40.1646 486.698C40.6885 486.698 41.2903 486.761 41.9699 486.889C42.6567 487.009 43.3186 487.261 43.9558 487.643C44.6 488.025 45.1345 488.602 45.5593 489.374C45.9841 490.146 46.1965 491.179 46.1965 492.475V503.222H43.6903V501.013H43.5629C43.3929 501.367 43.1098 501.745 42.7133 502.149C42.3168 502.553 41.7894 502.896 41.131 503.179C40.4726 503.462 39.6691 503.604 38.7204 503.604ZM39.1027 501.353C40.0938 501.353 40.9292 501.158 41.6089 500.769C42.2956 500.379 42.8124 499.876 43.1593 499.261C43.5133 498.645 43.6903 497.997 43.6903 497.317V495.023C43.5841 495.151 43.3505 495.268 42.9894 495.374C42.6354 495.473 42.2248 495.561 41.7575 495.639C41.2974 495.71 40.8478 495.774 40.4089 495.83C39.977 495.88 39.6266 495.923 39.3576 495.958C38.7062 496.043 38.0974 496.181 37.531 496.372C36.9717 496.556 36.5186 496.836 36.1717 497.211C35.8319 497.579 35.662 498.082 35.662 498.719C35.662 499.59 35.9841 500.248 36.6284 500.694C37.2797 501.133 38.1045 501.353 39.1027 501.353ZM62.3247 490.563L60.0734 491.2C59.9318 490.825 59.723 490.461 59.4469 490.107C59.1778 489.746 58.8097 489.448 58.3424 489.215C57.8752 488.981 57.277 488.864 56.5478 488.864C55.5495 488.864 54.7177 489.094 54.0522 489.554C53.3938 490.007 53.0646 490.584 53.0646 491.285C53.0646 491.908 53.2911 492.4 53.7442 492.761C54.1973 493.123 54.9053 493.423 55.8681 493.664L58.2893 494.259C59.7477 494.613 60.8345 495.154 61.5495 495.884C62.2645 496.606 62.6221 497.537 62.6221 498.676C62.6221 499.611 62.353 500.446 61.815 501.183C61.284 501.919 60.5407 502.499 59.5849 502.924C58.6292 503.349 57.5177 503.561 56.2504 503.561C54.5867 503.561 53.2097 503.2 52.1195 502.478C51.0292 501.756 50.3389 500.701 50.0487 499.314L52.4274 498.719C52.654 499.597 53.0823 500.255 53.7124 500.694C54.3495 501.133 55.1814 501.353 56.2079 501.353C57.3761 501.353 58.3035 501.105 58.9902 500.609C59.684 500.107 60.0309 499.505 60.0309 498.804C60.0309 498.238 59.8327 497.763 59.4362 497.381C59.0398 496.992 58.4309 496.701 57.6097 496.51L54.8911 495.873C53.3973 495.519 52.3 494.97 51.5991 494.227C50.9053 493.476 50.5584 492.538 50.5584 491.413C50.5584 490.492 50.8168 489.678 51.3336 488.97C51.8575 488.262 52.569 487.707 53.4681 487.303C54.3743 486.9 55.4009 486.698 56.5478 486.698C58.1619 486.698 59.4292 487.052 60.3495 487.76C61.2769 488.468 61.9353 489.402 62.3247 490.563ZM68.0088 509.338C67.584 509.338 67.2052 509.303 66.8725 509.232C66.5398 509.168 66.3097 509.105 66.1822 509.041L66.8194 506.832C67.4282 506.988 67.9663 507.045 68.4335 507.002C68.9008 506.96 69.315 506.751 69.676 506.376C70.0442 506.007 70.3804 505.409 70.6849 504.581L71.1521 503.307L65.1203 486.91H67.8389L72.3415 499.908H72.5114L77.014 486.91H79.7326L72.8088 505.6C72.4972 506.443 72.1114 507.14 71.6512 507.692C71.1911 508.252 70.6565 508.666 70.0477 508.935C69.4459 509.204 68.7663 509.338 68.0088 509.338ZM89.2954 503.561C87.7237 503.561 86.368 503.215 85.2282 502.521C84.0954 501.82 83.2211 500.843 82.6052 499.59C81.9963 498.33 81.6919 496.864 81.6919 495.193C81.6919 493.523 81.9963 492.05 82.6052 490.776C83.2211 489.494 84.0777 488.496 85.1751 487.781C86.2795 487.059 87.568 486.698 89.0405 486.698C89.8901 486.698 90.729 486.839 91.5573 487.123C92.3857 487.406 93.1396 487.866 93.8193 488.503C94.4989 489.133 95.0405 489.969 95.4441 491.009C95.8476 492.05 96.0494 493.331 96.0494 494.853V495.915H83.476V493.749H93.5007C93.5007 492.829 93.3166 492.007 92.9485 491.285C92.5874 490.563 92.0706 489.993 91.3981 489.576C90.7326 489.158 89.9467 488.949 89.0405 488.949C88.0423 488.949 87.1786 489.197 86.4494 489.692C85.7273 490.181 85.1715 490.818 84.7822 491.604C84.3928 492.39 84.1981 493.232 84.1981 494.131V495.576C84.1981 496.807 84.4105 497.852 84.8353 498.708C85.2671 499.558 85.8653 500.206 86.6299 500.652C87.3945 501.091 88.283 501.31 89.2954 501.31C89.9538 501.31 90.5485 501.218 91.0795 501.034C91.6175 500.843 92.0812 500.56 92.4706 500.184C92.86 499.802 93.1609 499.328 93.3733 498.761L95.7945 499.441C95.5396 500.262 95.1113 500.984 94.5096 501.607C93.9078 502.223 93.1644 502.705 92.2795 503.052C91.3945 503.391 90.3998 503.561 89.2954 503.561Z" fill="white"/>
<path d="M126.634 503.222V481.473H129.267V500.885H139.377V503.222H126.634ZM147.915 503.604C146.881 503.604 145.943 503.409 145.101 503.02C144.258 502.623 143.589 502.053 143.094 501.31C142.598 500.56 142.35 499.653 142.35 498.592C142.35 497.657 142.534 496.899 142.903 496.319C143.271 495.731 143.763 495.271 144.379 494.938C144.995 494.606 145.674 494.358 146.418 494.195C147.168 494.025 147.922 493.891 148.68 493.792C149.671 493.664 150.474 493.569 151.09 493.505C151.713 493.434 152.166 493.317 152.449 493.154C152.74 492.992 152.885 492.708 152.885 492.305V492.22C152.885 491.172 152.598 490.358 152.025 489.777C151.458 489.197 150.598 488.907 149.444 488.907C148.248 488.907 147.31 489.169 146.63 489.692C145.95 490.216 145.472 490.776 145.196 491.37L142.818 490.521C143.242 489.53 143.809 488.758 144.517 488.206C145.232 487.646 146.011 487.257 146.853 487.038C147.703 486.811 148.538 486.698 149.359 486.698C149.883 486.698 150.485 486.761 151.164 486.889C151.851 487.009 152.513 487.261 153.15 487.643C153.795 488.025 154.329 488.602 154.754 489.374C155.179 490.146 155.391 491.179 155.391 492.475V503.222H152.885V501.013H152.757C152.587 501.367 152.304 501.745 151.908 502.149C151.511 502.553 150.984 502.896 150.326 503.179C149.667 503.462 148.864 503.604 147.915 503.604ZM148.297 501.353C149.288 501.353 150.124 501.158 150.803 500.769C151.49 500.379 152.007 499.876 152.354 499.261C152.708 498.645 152.885 497.997 152.885 497.317V495.023C152.779 495.151 152.545 495.268 152.184 495.374C151.83 495.473 151.419 495.561 150.952 495.639C150.492 495.71 150.042 495.774 149.603 495.83C149.172 495.88 148.821 495.923 148.552 495.958C147.901 496.043 147.292 496.181 146.726 496.372C146.166 496.556 145.713 496.836 145.366 497.211C145.026 497.579 144.857 498.082 144.857 498.719C144.857 499.59 145.179 500.248 145.823 500.694C146.474 501.133 147.299 501.353 148.297 501.353ZM162.472 493.409V503.222H159.965V486.91H162.387V489.459H162.599C162.981 488.63 163.562 487.965 164.341 487.462C165.119 486.953 166.125 486.698 167.356 486.698C168.461 486.698 169.427 486.924 170.256 487.377C171.084 487.823 171.728 488.503 172.188 489.416C172.648 490.323 172.879 491.469 172.879 492.857V503.222H170.372V493.027C170.372 491.746 170.04 490.747 169.374 490.032C168.709 489.31 167.795 488.949 166.634 488.949C165.834 488.949 165.119 489.123 164.489 489.469C163.866 489.816 163.374 490.323 163.013 490.988C162.652 491.653 162.472 492.461 162.472 493.409ZM184.042 509.678C182.832 509.678 181.791 509.522 180.92 509.211C180.049 508.907 179.324 508.503 178.743 508C178.17 507.505 177.713 506.974 177.373 506.407L179.37 505.006C179.596 505.303 179.883 505.643 180.23 506.025C180.577 506.414 181.051 506.751 181.653 507.034C182.262 507.324 183.058 507.469 184.042 507.469C185.359 507.469 186.446 507.151 187.302 506.514C188.159 505.876 188.587 504.878 188.587 503.519V500.206H188.375C188.191 500.503 187.929 500.871 187.589 501.31C187.256 501.742 186.775 502.128 186.145 502.468C185.522 502.8 184.679 502.967 183.617 502.967C182.301 502.967 181.118 502.655 180.071 502.032C179.03 501.409 178.205 500.503 177.596 499.314C176.994 498.124 176.694 496.68 176.694 494.981C176.694 493.31 176.987 491.855 177.575 490.616C178.163 489.37 178.98 488.407 180.028 487.728C181.076 487.041 182.286 486.698 183.66 486.698C184.722 486.698 185.564 486.875 186.187 487.229C186.817 487.576 187.299 487.972 187.632 488.418C187.971 488.857 188.233 489.218 188.417 489.501H188.672V486.91H191.094V503.689C191.094 505.091 190.775 506.23 190.138 507.108C189.508 507.993 188.658 508.641 187.589 509.052C186.527 509.469 185.345 509.678 184.042 509.678ZM183.957 500.715C184.963 500.715 185.812 500.485 186.506 500.025C187.2 499.565 187.727 498.903 188.088 498.039C188.449 497.176 188.63 496.142 188.63 494.938C188.63 493.763 188.453 492.726 188.099 491.827C187.745 490.928 187.221 490.223 186.527 489.714C185.833 489.204 184.977 488.949 183.957 488.949C182.895 488.949 182.01 489.218 181.302 489.756C180.602 490.294 180.074 491.016 179.72 491.923C179.373 492.829 179.2 493.834 179.2 494.938C179.2 496.071 179.377 497.073 179.731 497.944C180.092 498.807 180.623 499.487 181.324 499.983C182.032 500.471 182.91 500.715 183.957 500.715ZM205.961 496.553V486.91H208.467V503.222H205.961V500.461H205.791C205.409 501.289 204.814 501.993 204.007 502.574C203.2 503.147 202.18 503.434 200.948 503.434C199.929 503.434 199.023 503.211 198.23 502.765C197.437 502.312 196.814 501.632 196.361 500.726C195.908 499.813 195.681 498.662 195.681 497.275V486.91H198.187V497.105C198.187 498.294 198.52 499.243 199.186 499.951C199.858 500.659 200.715 501.013 201.755 501.013C202.378 501.013 203.012 500.853 203.656 500.535C204.308 500.216 204.853 499.728 205.292 499.069C205.738 498.411 205.961 497.572 205.961 496.553ZM217.857 503.604C216.824 503.604 215.885 503.409 215.043 503.02C214.201 502.623 213.532 502.053 213.036 501.31C212.54 500.56 212.293 499.653 212.293 498.592C212.293 497.657 212.477 496.899 212.845 496.319C213.213 495.731 213.705 495.271 214.321 494.938C214.937 494.606 215.616 494.358 216.36 494.195C217.11 494.025 217.864 493.891 218.622 493.792C219.613 493.664 220.416 493.569 221.032 493.505C221.655 493.434 222.108 493.317 222.392 493.154C222.682 492.992 222.827 492.708 222.827 492.305V492.22C222.827 491.172 222.54 490.358 221.967 489.777C221.401 489.197 220.54 488.907 219.386 488.907C218.19 488.907 217.252 489.169 216.572 489.692C215.893 490.216 215.415 490.776 215.139 491.37L212.76 490.521C213.185 489.53 213.751 488.758 214.459 488.206C215.174 487.646 215.953 487.257 216.795 487.038C217.645 486.811 218.48 486.698 219.301 486.698C219.825 486.698 220.427 486.761 221.107 486.889C221.793 487.009 222.455 487.261 223.093 487.643C223.737 488.025 224.271 488.602 224.696 489.374C225.121 490.146 225.333 491.179 225.333 492.475V503.222H222.827V501.013H222.7C222.53 501.367 222.247 501.745 221.85 502.149C221.454 502.553 220.926 502.896 220.268 503.179C219.609 503.462 218.806 503.604 217.857 503.604ZM218.239 501.353C219.231 501.353 220.066 501.158 220.746 500.769C221.432 500.379 221.949 499.876 222.296 499.261C222.65 498.645 222.827 497.997 222.827 497.317V495.023C222.721 495.151 222.487 495.268 222.126 495.374C221.772 495.473 221.362 495.561 220.894 495.639C220.434 495.71 219.985 495.774 219.546 495.83C219.114 495.88 218.763 495.923 218.494 495.958C217.843 496.043 217.234 496.181 216.668 496.372C216.108 496.556 215.655 496.836 215.308 497.211C214.969 497.579 214.799 498.082 214.799 498.719C214.799 499.59 215.121 500.248 215.765 500.694C216.416 501.133 217.241 501.353 218.239 501.353ZM236.492 509.678C235.281 509.678 234.24 509.522 233.369 509.211C232.499 508.907 231.773 508.503 231.193 508C230.619 507.505 230.162 506.974 229.823 506.407L231.819 505.006C232.046 505.303 232.332 505.643 232.679 506.025C233.026 506.414 233.5 506.751 234.102 507.034C234.711 507.324 235.508 507.469 236.492 507.469C237.808 507.469 238.895 507.151 239.752 506.514C240.608 505.876 241.037 504.878 241.037 503.519V500.206H240.824C240.64 500.503 240.378 500.871 240.038 501.31C239.706 501.742 239.224 502.128 238.594 502.468C237.971 502.8 237.129 502.967 236.067 502.967C234.75 502.967 233.568 502.655 232.52 502.032C231.479 501.409 230.654 500.503 230.046 499.314C229.444 498.124 229.143 496.68 229.143 494.981C229.143 493.31 229.437 491.855 230.024 490.616C230.612 489.37 231.43 488.407 232.477 487.728C233.525 487.041 234.736 486.698 236.109 486.698C237.171 486.698 238.014 486.875 238.637 487.229C239.267 487.576 239.748 487.972 240.081 488.418C240.421 488.857 240.683 489.218 240.867 489.501H241.122V486.91H243.543V503.689C243.543 505.091 243.224 506.23 242.587 507.108C241.957 507.993 241.108 508.641 240.038 509.052C238.977 509.469 237.794 509.678 236.492 509.678ZM236.407 500.715C237.412 500.715 238.262 500.485 238.955 500.025C239.649 499.565 240.177 498.903 240.538 498.039C240.899 497.176 241.079 496.142 241.079 494.938C241.079 493.763 240.902 492.726 240.548 491.827C240.194 490.928 239.67 490.223 238.977 489.714C238.283 489.204 237.426 488.949 236.407 488.949C235.345 488.949 234.46 489.218 233.752 489.756C233.051 490.294 232.523 491.016 232.169 491.923C231.823 492.829 231.649 493.834 231.649 494.938C231.649 496.071 231.826 497.073 232.18 497.944C232.541 498.807 233.072 499.487 233.773 499.983C234.481 500.471 235.359 500.715 236.407 500.715ZM254.969 503.561C253.398 503.561 252.042 503.215 250.902 502.521C249.769 501.82 248.895 500.843 248.279 499.59C247.67 498.33 247.366 496.864 247.366 495.193C247.366 493.523 247.67 492.05 248.279 490.776C248.895 489.494 249.752 488.496 250.849 487.781C251.953 487.059 253.242 486.698 254.715 486.698C255.564 486.698 256.403 486.839 257.231 487.123C258.06 487.406 258.814 487.866 259.493 488.503C260.173 489.133 260.715 489.969 261.118 491.009C261.522 492.05 261.723 493.331 261.723 494.853V495.915H249.15V493.749H259.175C259.175 492.829 258.991 492.007 258.622 491.285C258.261 490.563 257.745 489.993 257.072 489.576C256.407 489.158 255.621 488.949 254.715 488.949C253.716 488.949 252.853 489.197 252.123 489.692C251.401 490.181 250.846 490.818 250.456 491.604C250.067 492.39 249.872 493.232 249.872 494.131V495.576C249.872 496.807 250.084 497.852 250.509 498.708C250.941 499.558 251.539 500.206 252.304 500.652C253.069 501.091 253.957 501.31 254.969 501.31C255.628 501.31 256.222 501.218 256.753 501.034C257.292 500.843 257.755 500.56 258.145 500.184C258.534 499.802 258.835 499.328 259.047 498.761L261.468 499.441C261.214 500.262 260.785 500.984 260.184 501.607C259.582 502.223 258.838 502.705 257.953 503.052C257.068 503.391 256.074 503.561 254.969 503.561ZM277.09 490.563L274.838 491.2C274.697 490.825 274.488 490.461 274.212 490.107C273.943 489.746 273.575 489.448 273.107 489.215C272.64 488.981 272.042 488.864 271.313 488.864C270.314 488.864 269.483 489.094 268.817 489.554C268.159 490.007 267.83 490.584 267.83 491.285C267.83 491.908 268.056 492.4 268.509 492.761C268.962 493.123 269.67 493.423 270.633 493.664L273.054 494.259C274.513 494.613 275.599 495.154 276.314 495.884C277.029 496.606 277.387 497.537 277.387 498.676C277.387 499.611 277.118 500.446 276.58 501.183C276.049 501.919 275.306 502.499 274.35 502.924C273.394 503.349 272.283 503.561 271.015 503.561C269.352 503.561 267.975 503.2 266.884 502.478C265.794 501.756 265.104 500.701 264.814 499.314L267.192 498.719C267.419 499.597 267.847 500.255 268.477 500.694C269.114 501.133 269.946 501.353 270.973 501.353C272.141 501.353 273.068 501.105 273.755 500.609C274.449 500.107 274.796 499.505 274.796 498.804C274.796 498.238 274.598 497.763 274.201 497.381C273.805 496.992 273.196 496.701 272.375 496.51L269.656 495.873C268.162 495.519 267.065 494.97 266.364 494.227C265.67 493.476 265.323 492.538 265.323 491.413C265.323 490.492 265.582 489.678 266.099 488.97C266.622 488.262 267.334 487.707 268.233 487.303C269.139 486.9 270.166 486.698 271.313 486.698C272.927 486.698 274.194 487.052 275.114 487.76C276.042 488.468 276.7 489.402 277.09 490.563Z" fill="white"/>
<g filter="url(#filter0_i_7_68)">
<path d="M305.444 483.809V481.473H321.756V483.809H314.917V503.222H312.283V483.809H305.444ZM329.741 503.561C328.269 503.561 326.977 503.211 325.865 502.51C324.761 501.809 323.897 500.829 323.274 499.569C322.658 498.308 322.35 496.836 322.35 495.151C322.35 493.452 322.658 491.969 323.274 490.701C323.897 489.434 324.761 488.45 325.865 487.749C326.977 487.048 328.269 486.698 329.741 486.698C331.214 486.698 332.503 487.048 333.607 487.749C334.718 488.45 335.582 489.434 336.198 490.701C336.821 491.969 337.133 493.452 337.133 495.151C337.133 496.836 336.821 498.308 336.198 499.569C335.582 500.829 334.718 501.809 333.607 502.51C332.503 503.211 331.214 503.561 329.741 503.561ZM329.741 501.31C330.86 501.31 331.78 501.023 332.503 500.45C333.225 499.876 333.759 499.122 334.106 498.188C334.453 497.253 334.626 496.241 334.626 495.151C334.626 494.061 334.453 493.045 334.106 492.103C333.759 491.161 333.225 490.4 332.503 489.82C331.78 489.239 330.86 488.949 329.741 488.949C328.623 488.949 327.703 489.239 326.98 489.82C326.258 490.4 325.724 491.161 325.377 492.103C325.03 493.045 324.857 494.061 324.857 495.151C324.857 496.241 325.03 497.253 325.377 498.188C325.724 499.122 326.258 499.876 326.98 500.45C327.703 501.023 328.623 501.31 329.741 501.31ZM347.585 503.561C346.112 503.561 344.82 503.211 343.709 502.51C342.604 501.809 341.741 500.829 341.118 499.569C340.502 498.308 340.194 496.836 340.194 495.151C340.194 493.452 340.502 491.969 341.118 490.701C341.741 489.434 342.604 488.45 343.709 487.749C344.82 487.048 346.112 486.698 347.585 486.698C349.057 486.698 350.346 487.048 351.45 487.749C352.562 488.45 353.425 489.434 354.041 490.701C354.664 491.969 354.976 493.452 354.976 495.151C354.976 496.836 354.664 498.308 354.041 499.569C353.425 500.829 352.562 501.809 351.45 502.51C350.346 503.211 349.057 503.561 347.585 503.561ZM347.585 501.31C348.703 501.31 349.624 501.023 350.346 500.45C351.068 499.876 351.602 499.122 351.949 498.188C352.296 497.253 352.47 496.241 352.47 495.151C352.47 494.061 352.296 493.045 351.949 492.103C351.602 491.161 351.068 490.4 350.346 489.82C349.624 489.239 348.703 488.949 347.585 488.949C346.466 488.949 345.546 489.239 344.824 489.82C344.102 490.4 343.567 491.161 343.22 492.103C342.873 493.045 342.7 494.061 342.7 495.151C342.7 496.241 342.873 497.253 343.22 498.188C343.567 499.122 344.102 499.876 344.824 500.45C345.546 501.023 346.466 501.31 347.585 501.31ZM361.308 481.473V503.222H358.802V481.473H361.308ZM377.452 490.563L375.201 491.2C375.059 490.825 374.85 490.461 374.574 490.107C374.305 489.746 373.937 489.448 373.47 489.215C373.002 488.981 372.404 488.864 371.675 488.864C370.677 488.864 369.845 489.094 369.179 489.554C368.521 490.007 368.192 490.584 368.192 491.285C368.192 491.908 368.418 492.4 368.871 492.761C369.325 493.123 370.032 493.423 370.995 493.664L373.417 494.259C374.875 494.613 375.962 495.154 376.677 495.884C377.392 496.606 377.749 497.537 377.749 498.676C377.749 499.611 377.48 500.446 376.942 501.183C376.411 501.919 375.668 502.499 374.712 502.924C373.756 503.349 372.645 503.561 371.378 503.561C369.714 503.561 368.337 503.2 367.247 502.478C366.156 501.756 365.466 500.701 365.176 499.314L367.555 498.719C367.781 499.597 368.209 500.255 368.84 500.694C369.477 501.133 370.309 501.353 371.335 501.353C372.503 501.353 373.431 501.105 374.117 500.609C374.811 500.107 375.158 499.505 375.158 498.804C375.158 498.238 374.96 497.763 374.563 497.381C374.167 496.992 373.558 496.701 372.737 496.51L370.018 495.873C368.525 495.519 367.427 494.97 366.726 494.227C366.032 493.476 365.686 492.538 365.686 491.413C365.686 490.492 365.944 489.678 366.461 488.97C366.985 488.262 367.696 487.707 368.595 487.303C369.502 486.9 370.528 486.698 371.675 486.698C373.289 486.698 374.556 487.052 375.477 487.76C376.404 488.468 377.063 489.402 377.452 490.563Z" fill="#313131"/>
</g>
<g filter="url(#filter1_ddii_7_68)">
<circle cx="256" cy="256" r="197" fill="#F5F5F5" fill-opacity="0.11" shape-rendering="crispEdges"/>
</g>
<g filter="url(#filter2_di_7_68)">
<path d="M313.767 201.195L263.449 275.256C301.177 275.256 339.635 275.256 367.831 355.981L313.767 201.195Z" fill="#F5F5F5" fill-opacity="0.11" shape-rendering="crispEdges"/>
<path d="M208.602 355.981L313.767 201.195L367.831 355.981C339.635 275.256 301.177 275.256 263.449 275.256" stroke="white" stroke-width="19.2556" shape-rendering="crispEdges"/>
</g>
<g filter="url(#filter3_di_7_68)">
<path d="M210.311 278.218L206.925 191.67C173.539 201.808 140.355 215.96 125.883 234.523C91.8152 278.218 210.311 278.218 210.311 278.218Z" fill="#F5F5F5" fill-opacity="0.11" shape-rendering="crispEdges"/>
<path d="M203.646 107.88L210.311 278.218C210.311 278.218 91.8152 278.218 125.883 234.523C159.951 190.827 297.702 171.571 297.702 171.571" stroke="white" stroke-width="19.2556" shape-rendering="crispEdges"/>
</g>
</g>
<defs>
<filter id="filter0_i_7_68" x="305.444" y="481.473" width="72.3051" height="22.0884" filterUnits="userSpaceOnUse" color-interpolation-filters="sRGB">
<feFlood flood-opacity="0" result="BackgroundImageFix"/>
<feBlend mode="normal" in="SourceGraphic" in2="BackgroundImageFix" result="shape"/>
<feColorMatrix in="SourceAlpha" type="matrix" values="0 0 0 0 0 0 0 0 0 0 0 0 0 0 0 0 0 0 127 0" result="hardAlpha"/>
<feOffset dy="1"/>
<feComposite in2="hardAlpha" operator="arithmetic" k2="-1" k3="1"/>
<feColorMatrix type="matrix" values="0 0 0 0 1 0 0 0 0 1 0 0 0 0 1 0 0 0 0.25 0"/>
<feBlend mode="normal" in2="shape" result="effect1_innerShadow_7_68"/>
</filter>
<filter id="filter1_ddii_7_68" x="53.0752" y="47.1504" width="405.85" height="417.699" filterUnits="userSpaceOnUse" color-interpolation-filters="sRGB">
<feFlood flood-opacity="0" result="BackgroundImageFix"/>
<feColorMatrix in="SourceAlpha" type="matrix" values="0 0 0 0 0 0 0 0 0 0 0 0 0 0 0 0 0 0 127 0" result="hardAlpha"/>
<feOffset dy="-5.92481"/>
<feGaussianBlur stdDeviation="2.96241"/>
<feColorMatrix type="matrix" values="0 0 0 0 1 0 0 0 0 1 0 0 0 0 1 0 0 0 0.25 0"/>
<feBlend mode="normal" in2="BackgroundImageFix" result="effect1_dropShadow_7_68"/>
<feColorMatrix in="SourceAlpha" type="matrix" values="0 0 0 0 0 0 0 0 0 0 0 0 0 0 0 0 0 0 127 0" result="hardAlpha"/>
<feOffset dy="5.92481"/>
<feGaussianBlur stdDeviation="2.96241"/>
<feComposite in2="hardAlpha" operator="out"/>
<feColorMatrix type="matrix" values="0 0 0 0 0 0 0 0 0 0 0 0 0 0 0 0 0 0 0.25 0"/>
<feBlend mode="normal" in2="effect1_dropShadow_7_68" result="effect2_dropShadow_7_68"/>
<feBlend mode="normal" in="SourceGraphic" in2="effect2_dropShadow_7_68" result="shape"/>
<feColorMatrix in="SourceAlpha" type="matrix" values="0 0 0 0 0 0 0 0 0 0 0 0 0 0 0 0 0 0 127 0" result="hardAlpha"/>
<feOffset dy="-5.92481"/>
<feGaussianBlur stdDeviation="2.96241"/>
<feComposite in2="hardAlpha" operator="arithmetic" k2="-1" k3="1"/>
<feColorMatrix type="matrix" values="0 0 0 0 0 0 0 0 0 0 0 0 0 0 0 0 0 0 0.25 0"/>
<feBlend mode="normal" in2="shape" result="effect3_innerShadow_7_68"/>
<feColorMatrix in="SourceAlpha" type="matrix" values="0 0 0 0 0 0 0 0 0 0 0 0 0 0 0 0 0 0 127 0" result="hardAlpha"/>
<feOffset dy="5.92481"/>
<feGaussianBlur stdDeviation="2.96241"/>
<feComposite in2="hardAlpha" operator="arithmetic" k2="-1" k3="1"/>
<feColorMatrix type="matrix" values="0 0 0 0 1 0 0 0 0 1 0 0 0 0 1 0 0 0 0.55 0"/>
<feBlend mode="normal" in2="effect3_innerShadow_7_68" result="effect4_innerShadow_7_68"/>
</filter>
<filter id="filter2_di_7_68" x="194.713" y="179.967" width="188.132" height="193.275" filterUnits="userSpaceOnUse" color-interpolation-filters="sRGB">
<feFlood flood-opacity="0" result="BackgroundImageFix"/>
<feColorMatrix in="SourceAlpha" type="matrix" values="0 0 0 0 0 0 0 0 0 0 0 0 0 0 0 0 0 0 127 0" result="hardAlpha"/>
<feOffset dy="5.92481"/>
<feGaussianBlur stdDeviation="2.96241"/>
<feComposite in2="hardAlpha" operator="out"/>
<feColorMatrix type="matrix" values="0 0 0 0 0 0 0 0 0 0 0 0 0 0 0 0 0 0 0.25 0"/>
<feBlend mode="normal" in2="BackgroundImageFix" result="effect1_dropShadow_7_68"/>
<feBlend mode="normal" in="SourceGraphic" in2="effect1_dropShadow_7_68" result="shape"/>
<feColorMatrix in="SourceAlpha" type="matrix" values="0 0 0 0 0 0 0 0 0 0 0 0 0 0 0 0 0 0 127 0" result="hardAlpha"/>
<feOffset/>
<feGaussianBlur stdDeviation="2.96241"/>
<feComposite in2="hardAlpha" operator="arithmetic" k2="-1" k3="1"/>
<feColorMatrix type="matrix" values="0 0 0 0 0 0 0 0 0 0 0 0 0 0 0 0 0 0 0.65 0"/>
<feBlend mode="normal" in2="shape" result="effect2_innerShadow_7_68"/>
</filter>
<filter id="filter3_di_7_68" x="104.177" y="107.503" width="200.784" height="192.192" filterUnits="userSpaceOnUse" color-interpolation-filters="sRGB">
<feFlood flood-opacity="0" result="BackgroundImageFix"/>
<feColorMatrix in="SourceAlpha" type="matrix" values="0 0 0 0 0 0 0 0 0 0 0 0 0 0 0 0 0 0 127 0" result="hardAlpha"/>
<feOffset dy="5.92481"/>
<feGaussianBlur stdDeviation="2.96241"/>
<feComposite in2="hardAlpha" operator="out"/>
<feColorMatrix type="matrix" values="0 0 0 0 0 0 0 0 0 0 0 0 0 0 0 0 0 0 0.25 0"/>
<feBlend mode="normal" in2="BackgroundImageFix" result="effect1_dropShadow_7_68"/>
<feBlend mode="normal" in="SourceGraphic" in2="effect1_dropShadow_7_68" result="shape"/>
<feColorMatrix in="SourceAlpha" type="matrix" values="0 0 0 0 0 0 0 0 0 0 0 0 0 0 0 0 0 0 127 0" result="hardAlpha"/>
<feOffset/>
<feGaussianBlur stdDeviation="2.96241"/>
<feComposite in2="hardAlpha" operator="arithmetic" k2="-1" k3="1"/>
<feColorMatrix type="matrix" values="0 0 0 0 0 0 0 0 0 0 0 0 0 0 0 0 0 0 0.65 0"/>
<feBlend mode="normal" in2="shape" result="effect2_innerShadow_7_68"/>
</filter>
<linearGradient id="paint0_linear_7_68" x1="256" y1="0" x2="256" y2="516" gradientUnits="userSpaceOnUse">
<stop stop-color="#7F1010"/>
<stop offset="0.799773" stop-color="#C54D32"/>
<stop offset="1" stop-color="#AF2816"/>
</linearGradient>
<clipPath id="clip0_7_68">
<rect width="512" height="512" fill="white"/>
</clipPath>
</defs>
</svg>
